G04*
G04 #@! TF.GenerationSoftware,Altium Limited,Altium Designer,21.6.1 (37)*
G04*
G04 Layer_Color=32896*
%FSLAX44Y44*%
%MOMM*%
G71*
G04*
G04 #@! TF.SameCoordinates,A92CAA26-08F0-4408-94ED-5E53D9BCA86D*
G04*
G04*
G04 #@! TF.FilePolarity,Positive*
G04*
G01*
G75*
%ADD10C,0.2000*%
%ADD11C,0.1270*%
%ADD12C,0.1700*%
D10*
X1671000Y2769000D02*
G03*
X1671000Y2769000I-1000J0D01*
G01*
D11*
X1678250Y2768000D02*
Y2776000D01*
X1701000D01*
X1678250Y2696000D02*
Y2704000D01*
Y2696000D02*
X1701000D01*
X1720750Y2708000D02*
Y2764000D01*
D12*
X1567646Y2756963D02*
X1568812Y2758130D01*
X1571145D01*
X1572311Y2756963D01*
Y2752298D01*
X1571145Y2751132D01*
X1568812D01*
X1567646Y2752298D01*
Y2754631D01*
X1569979D01*
X1567646Y2744486D02*
X1568812Y2745652D01*
X1571145D01*
X1572311Y2744486D01*
Y2739821D01*
X1571145Y2738654D01*
X1568812D01*
X1567646Y2739821D01*
X1572311Y2733175D02*
Y2726177D01*
X1568812D01*
X1567646Y2727343D01*
Y2732009D01*
X1568812Y2733175D01*
X1572311D01*
Y2720698D02*
Y2716033D01*
X1569979Y2713700D01*
X1567646Y2716033D01*
Y2720698D01*
X1662300Y2764520D02*
X1661134Y2765686D01*
X1658801D01*
X1657635Y2764520D01*
Y2763354D01*
X1658801Y2762188D01*
X1659967D01*
X1658801D01*
X1657635Y2761021D01*
Y2759855D01*
X1658801Y2758688D01*
X1661134D01*
X1662300Y2759855D01*
X1655302Y2765686D02*
Y2761021D01*
X1652970Y2758688D01*
X1650637Y2761021D01*
Y2765686D01*
X1648304Y2764520D02*
X1647138Y2765686D01*
X1644806D01*
X1643639Y2764520D01*
Y2763354D01*
X1644806Y2762188D01*
X1645972D01*
X1644806D01*
X1643639Y2761021D01*
Y2759855D01*
X1644806Y2758688D01*
X1647138D01*
X1648304Y2759855D01*
X1662300Y2753209D02*
X1657635D01*
X1662300Y2745930D02*
X1657635D01*
Y2737486D02*
X1658801Y2738652D01*
X1661134D01*
X1662300Y2737486D01*
Y2736320D01*
X1661134Y2735153D01*
X1658801D01*
X1657635Y2733987D01*
Y2732821D01*
X1658801Y2731654D01*
X1661134D01*
X1662300Y2732821D01*
X1655302Y2738652D02*
Y2731654D01*
X1652970Y2733987D01*
X1650637Y2731654D01*
Y2738652D01*
X1648304D02*
Y2731654D01*
X1644806D01*
X1643639Y2732821D01*
Y2737486D01*
X1644806Y2738652D01*
X1648304D01*
X1641307D02*
X1638974D01*
X1640141D01*
Y2731654D01*
X1641307D01*
X1638974D01*
X1631976Y2738652D02*
X1634309D01*
X1635475Y2737486D01*
Y2732821D01*
X1634309Y2731654D01*
X1631976D01*
X1630810Y2732821D01*
Y2737486D01*
X1631976Y2738652D01*
X1657635Y2725009D02*
X1658801Y2726175D01*
X1661134D01*
X1662300Y2725009D01*
Y2723842D01*
X1661134Y2722676D01*
X1658801D01*
X1657635Y2721510D01*
Y2720344D01*
X1658801Y2719177D01*
X1661134D01*
X1662300Y2720344D01*
X1655302Y2726175D02*
Y2719177D01*
X1652970Y2721510D01*
X1650637Y2719177D01*
Y2726175D01*
X1643639Y2725009D02*
X1644806Y2726175D01*
X1647138D01*
X1648304Y2725009D01*
Y2720344D01*
X1647138Y2719177D01*
X1644806D01*
X1643639Y2720344D01*
X1641307Y2726175D02*
Y2719177D01*
X1636642D01*
X1634309Y2726175D02*
Y2719177D01*
Y2721510D01*
X1629644Y2726175D01*
X1633143Y2722676D01*
X1629644Y2719177D01*
X1657635Y2712531D02*
X1658801Y2713698D01*
X1661134D01*
X1662300Y2712531D01*
Y2707866D01*
X1661134Y2706700D01*
X1658801D01*
X1657635Y2707866D01*
Y2710199D01*
X1659967D01*
X1655302Y2706700D02*
Y2713698D01*
X1650637Y2706700D01*
Y2713698D01*
X1648304D02*
Y2706700D01*
X1644806D01*
X1643639Y2707866D01*
Y2712531D01*
X1644806Y2713698D01*
X1648304D01*
M02*
