G04*
G04 #@! TF.GenerationSoftware,Altium Limited,Altium Designer,21.6.1 (37)*
G04*
G04 Layer_Color=65535*
%FSLAX44Y44*%
%MOMM*%
G71*
G04*
G04 #@! TF.SameCoordinates,A92CAA26-08F0-4408-94ED-5E53D9BCA86D*
G04*
G04*
G04 #@! TF.FilePolarity,Positive*
G04*
G01*
G75*
%ADD10C,0.2000*%
%ADD11C,0.1270*%
%ADD12C,0.1700*%
D10*
X1663250Y2718000D02*
G03*
X1663250Y2718000I-1000J0D01*
G01*
D11*
X1719250Y2705600D02*
Y2766500D01*
X1678750Y2759600D02*
Y2777250D01*
X1693050D01*
X1678750Y2694750D02*
Y2712400D01*
Y2694750D02*
X1692950D01*
D12*
X1640358Y2757963D02*
X1639192Y2759130D01*
X1636859D01*
X1635693Y2757963D01*
Y2753298D01*
X1636859Y2752132D01*
X1639192D01*
X1640358Y2753298D01*
Y2755630D01*
X1638026D01*
X1642691Y2752132D02*
Y2759130D01*
X1647356Y2752132D01*
Y2759130D01*
X1649689D02*
Y2752132D01*
X1653188D01*
X1654354Y2753298D01*
Y2757963D01*
X1653188Y2759130D01*
X1649689D01*
X1626363Y2745486D02*
X1625197Y2746652D01*
X1622864D01*
X1621698Y2745486D01*
Y2744319D01*
X1622864Y2743153D01*
X1625197D01*
X1626363Y2741987D01*
Y2740821D01*
X1625197Y2739655D01*
X1622864D01*
X1621698Y2740821D01*
X1628696Y2746652D02*
Y2739655D01*
X1631028Y2741987D01*
X1633361Y2739655D01*
Y2746652D01*
X1640358Y2745486D02*
X1639192Y2746652D01*
X1636859D01*
X1635693Y2745486D01*
Y2740821D01*
X1636859Y2739655D01*
X1639192D01*
X1640358Y2740821D01*
X1642691Y2746652D02*
Y2739655D01*
X1647356D01*
X1649689Y2746652D02*
Y2739655D01*
Y2741987D01*
X1654354Y2746652D01*
X1650855Y2743153D01*
X1654354Y2739655D01*
X1627529Y2733009D02*
X1626363Y2734175D01*
X1624030D01*
X1622864Y2733009D01*
Y2731842D01*
X1624030Y2730676D01*
X1626363D01*
X1627529Y2729510D01*
Y2728344D01*
X1626363Y2727177D01*
X1624030D01*
X1622864Y2728344D01*
X1629862Y2734175D02*
Y2727177D01*
X1632194Y2729510D01*
X1634527Y2727177D01*
Y2734175D01*
X1636859D02*
Y2727177D01*
X1640358D01*
X1641525Y2728344D01*
Y2733009D01*
X1640358Y2734175D01*
X1636859D01*
X1643857D02*
X1646190D01*
X1645024D01*
Y2727177D01*
X1643857D01*
X1646190D01*
X1653188Y2734175D02*
X1650855D01*
X1649689Y2733009D01*
Y2728344D01*
X1650855Y2727177D01*
X1653188D01*
X1654354Y2728344D01*
Y2733009D01*
X1653188Y2734175D01*
X1635693Y2720531D02*
X1636859Y2721698D01*
X1639192D01*
X1640358Y2720531D01*
Y2719365D01*
X1639192Y2718199D01*
X1638026D01*
X1639192D01*
X1640358Y2717032D01*
Y2715866D01*
X1639192Y2714700D01*
X1636859D01*
X1635693Y2715866D01*
X1642691Y2721698D02*
Y2717032D01*
X1645024Y2714700D01*
X1647356Y2717032D01*
Y2721698D01*
X1649689Y2720531D02*
X1650855Y2721698D01*
X1653188D01*
X1654354Y2720531D01*
Y2719365D01*
X1653188Y2718199D01*
X1652021D01*
X1653188D01*
X1654354Y2717032D01*
Y2715866D01*
X1653188Y2714700D01*
X1650855D01*
X1649689Y2715866D01*
M02*
