G04*
G04 #@! TF.GenerationSoftware,Altium Limited,Altium Designer,21.6.1 (37)*
G04*
G04 Layer_Physical_Order=1*
G04 Layer_Color=255*
%FSLAX44Y44*%
%MOMM*%
G71*
G04*
G04 #@! TF.SameCoordinates,49991723-759C-47F7-8A52-02324547BDDB*
G04*
G04*
G04 #@! TF.FilePolarity,Positive*
G04*
G01*
G75*
%ADD13R,2.7000X1.0000*%
%ADD14R,1.7000X0.6000*%
%ADD19C,0.8000*%
%ADD20O,2.0000X1.5000*%
G04:AMPARAMS|DCode=21|XSize=1mm|YSize=3mm|CornerRadius=0.25mm|HoleSize=0mm|Usage=FLASHONLY|Rotation=270.000|XOffset=0mm|YOffset=0mm|HoleType=Round|Shape=RoundedRectangle|*
%AMROUNDEDRECTD21*
21,1,1.0000,2.5000,0,0,270.0*
21,1,0.5000,3.0000,0,0,270.0*
1,1,0.5000,-1.2500,-0.2500*
1,1,0.5000,-1.2500,0.2500*
1,1,0.5000,1.2500,0.2500*
1,1,0.5000,1.2500,-0.2500*
%
%ADD21ROUNDEDRECTD21*%
%ADD22C,0.7000*%
D13*
X1708250Y2773250D02*
D03*
Y2698750D02*
D03*
D14*
X1676250Y2754750D02*
D03*
Y2742250D02*
D03*
Y2717250D02*
D03*
Y2729750D02*
D03*
D19*
X1708250Y2697750D02*
Y2698750D01*
X1545000Y2755000D02*
X1595000D01*
X1545000Y2742000D02*
X1595000D01*
X1545000Y2729000D02*
X1595000D01*
X1545000Y2716000D02*
X1546250Y2717250D01*
X1676250D01*
X1595000Y2729000D02*
X1595375Y2729375D01*
X1675875D01*
X1676250Y2729750D01*
X1595000Y2742000D02*
X1595125Y2742125D01*
X1676125D01*
X1676250Y2742250D01*
X1595000Y2755000D02*
X1676000D01*
X1676250Y2754750D01*
D20*
X1569000Y2701000D02*
D03*
Y2771000D02*
D03*
D21*
X1545000Y2716000D02*
D03*
X1595000D02*
D03*
X1545000Y2729000D02*
D03*
X1595000D02*
D03*
X1545000Y2742000D02*
D03*
X1595000D02*
D03*
X1545000Y2755000D02*
D03*
X1595000D02*
D03*
D22*
X1708250Y2697750D02*
D03*
Y2773250D02*
D03*
M02*
