G04*
G04 #@! TF.GenerationSoftware,Altium Limited,Altium Designer,21.6.1 (37)*
G04*
G04 Layer_Color=32896*
%FSLAX44Y44*%
%MOMM*%
G71*
G04*
G04 #@! TF.SameCoordinates,49991723-759C-47F7-8A52-02324547BDDB*
G04*
G04*
G04 #@! TF.FilePolarity,Positive*
G04*
G01*
G75*
%ADD12C,0.1700*%
D12*
X1636642Y2756963D02*
X1637808Y2758130D01*
X1640141D01*
X1641307Y2756963D01*
Y2752298D01*
X1640141Y2751132D01*
X1637808D01*
X1636642Y2752298D01*
Y2754631D01*
X1638974D01*
X1634309Y2751132D02*
Y2758130D01*
X1629644Y2751132D01*
Y2758130D01*
X1627311D02*
Y2751132D01*
X1623812D01*
X1622646Y2752298D01*
Y2756963D01*
X1623812Y2758130D01*
X1627311D01*
X1650637Y2744486D02*
X1651803Y2745652D01*
X1654136D01*
X1655302Y2744486D01*
Y2743320D01*
X1654136Y2742153D01*
X1651803D01*
X1650637Y2740987D01*
Y2739821D01*
X1651803Y2738654D01*
X1654136D01*
X1655302Y2739821D01*
X1648304Y2745652D02*
Y2738654D01*
X1645972Y2740987D01*
X1643639Y2738654D01*
Y2745652D01*
X1636642Y2744486D02*
X1637808Y2745652D01*
X1640141D01*
X1641307Y2744486D01*
Y2739821D01*
X1640141Y2738654D01*
X1637808D01*
X1636642Y2739821D01*
X1634309Y2745652D02*
Y2738654D01*
X1629644D01*
X1627311Y2745652D02*
Y2738654D01*
Y2740987D01*
X1622646Y2745652D01*
X1626145Y2742153D01*
X1622646Y2738654D01*
X1649471Y2732009D02*
X1650637Y2733175D01*
X1652970D01*
X1654136Y2732009D01*
Y2730842D01*
X1652970Y2729676D01*
X1650637D01*
X1649471Y2728510D01*
Y2727343D01*
X1650637Y2726177D01*
X1652970D01*
X1654136Y2727343D01*
X1647138Y2733175D02*
Y2726177D01*
X1644806Y2728510D01*
X1642473Y2726177D01*
Y2733175D01*
X1640141D02*
Y2726177D01*
X1636642D01*
X1635475Y2727343D01*
Y2732009D01*
X1636642Y2733175D01*
X1640141D01*
X1633143D02*
X1630810D01*
X1631976D01*
Y2726177D01*
X1633143D01*
X1630810D01*
X1623812Y2733175D02*
X1626145D01*
X1627311Y2732009D01*
Y2727343D01*
X1626145Y2726177D01*
X1623812D01*
X1622646Y2727343D01*
Y2732009D01*
X1623812Y2733175D01*
X1641307Y2719531D02*
X1640141Y2720698D01*
X1637808D01*
X1636642Y2719531D01*
Y2718365D01*
X1637808Y2717199D01*
X1638974D01*
X1637808D01*
X1636642Y2716033D01*
Y2714866D01*
X1637808Y2713700D01*
X1640141D01*
X1641307Y2714866D01*
X1634309Y2720698D02*
Y2716033D01*
X1631976Y2713700D01*
X1629644Y2716033D01*
Y2720698D01*
X1627311Y2719531D02*
X1626145Y2720698D01*
X1623812D01*
X1622646Y2719531D01*
Y2718365D01*
X1623812Y2717199D01*
X1624979D01*
X1623812D01*
X1622646Y2716033D01*
Y2714866D01*
X1623812Y2713700D01*
X1626145D01*
X1627311Y2714866D01*
M02*
